<svg width="128" height="128" version="1.1" viewBox="0 0 33.867 33.867" xmlns="http://www.w3.org/2000/svg">
 <defs>
  <clipPath id="a">
   <path d="m9.2242 6.0012c-1.5264 1.684-2.1171 4.5741-2.2174 6.8595-0.013343 0.8183 0.32504 1.6971 0.32504 2.3063s-2.0402 4.8407-2.0402 5.44 1.7961 2.7806 3.7553 4.4829c1.9592 1.7023 5.0925 2.8386 7.8863 2.8386s5.9271-1.1362 7.8863-2.8386c1.9592-1.7023 3.7553-3.8837 3.7553-4.4829s-2.0402-4.9186-2.0402-5.44 0.33839-1.488 0.32505-2.3063c-0.39403-2.1875-0.3942-5.3665-2.2174-6.8595-0.5564-0.20555-1.6115 0.69478-2.389 1.4723-0.77748 0.77748-1.409 2.504-1.6914 2.667-0.28238 0.16303-1.1103-0.41393-3.6287-0.41393s-3.3853 0.65735-3.6287 0.41393-0.89766-1.8733-1.6914-2.667c-0.79371-0.79371-1.8326-1.6778-2.389-1.4723z" fill="#f3a051"/>
  </clipPath>
 </defs>
 <g transform="matrix(1.3182 0 0 1.3182 -5.3879 -5.4096)">
  <path d="m9.2242 6.0012c-1.5264 1.684-2.1171 4.5741-2.2174 6.8595-0.013342 0.8183 0.32504 1.6971 0.32504 2.3063s-2.0402 4.8407-2.0402 5.44 1.7961 2.7806 3.7553 4.4829c1.9592 1.7023 5.0925 2.8386 7.8863 2.8386s5.9271-1.1362 7.8863-2.8386 3.7553-3.8837 3.7553-4.4829-2.0402-4.9186-2.0402-5.44 0.33839-1.488 0.32504-2.3063c-0.39403-2.1875-0.3942-5.3665-2.2174-6.8595-0.5564-0.20555-1.6115 0.69478-2.389 1.4723s-1.409 2.504-1.6914 2.667c-0.28238 0.16303-1.1103-0.41393-3.6287-0.41393s-3.3853 0.65735-3.6287 0.41393c-0.24342-0.24342-0.89766-1.8733-1.6914-2.667-0.79371-0.79371-1.8326-1.6778-2.389-1.4723z" fill="#f3a051"/>
  <path d="m16.933 16.211c2.388 0 3.6925 0.94554 4.3105 3.2522 0.23735 0.88582 0.35431 2.9213 2.6458 5.2128 1.6886 1.6886-4.5751 4.1688-6.9565 4.1688-2.388 0-8.6448-2.4802-6.9562-4.1688 2.5428-2.5428 2.3952-4.2773 2.6458-5.2128 0.61807-2.3067 1.9225-3.2522 4.3105-3.2522z" clip-path="url(#a)" fill="#fff" stroke-linecap="round" stroke-linejoin="round" stroke-width=".38978" style="paint-order:stroke fill markers"/>
  <g>
   <circle cx="16.933" cy="16.211" r="1.8013" fill="#fff" style="paint-order:stroke fill markers"/>
   <path transform="rotate(180 0 1.0583)" d="m-10.21-16.597c-0.27235 0.88039-0.71252 1.6997-1.2962 2.4129m-12.151-2.4129c0.27235 0.88039 0.71252 1.6997 1.2962 2.4129" display="none" fill="#dc7410" stroke="#fff" stroke-linecap="round" stroke-linejoin="round" stroke-width="2.6458" style="paint-order:stroke fill markers"/>
   <path d="m9.6914 9.2227c-0.33989 0.29393-0.81849 3.115-0.44648 3.3445s1.9196-0.65079 1.9291-1.2154-1.1427-2.423-1.4826-2.1291zm14.484 0c0.33989 0.29393 0.8185 3.115 0.44648 3.3445-0.37201 0.22952-1.9196-0.65079-1.9291-1.2154-0.0095-0.56464 1.1427-2.423 1.4826-2.1291z" fill="#754314"/>
  </g>
  <g transform="translate(4.299e-6 1.8923)">
   <g>
    <path transform="scale(1,-1)" d="m14.072-19.414c0 0.80015-0.64865 1.4488-1.4488 1.4488s-1.4488-0.64865-1.4488-1.4488c0-0.80015 0.64865-1.4488 1.4488-1.4488s1.4488 0.64865 1.4488 1.4488zm5.7235 0c0 0.80015 0.64865 1.4488 1.4488 1.4488s1.4488-0.64865 1.4488-1.4488c0-0.80015-0.64865-1.4488-1.4488-1.4488s-1.4488 0.64865-1.4488 1.4488z" fill="#754314" style="paint-order:stroke fill markers"/>
    <circle transform="scale(1,-1)" cx="21.244" cy="-19.414" r="1.5375" display="none" style="paint-order:stroke fill markers"/>
    <path d="m16.5 21.975-0.70267-0.85802c-0.43765-0.5344 0.33269-0.83591 1.1356-0.83591 0.80286 0 1.5733 0.30149 1.1356 0.83591l-0.70267 0.85802c-0.22389 0.27338-0.64199 0.27338-0.86587 0z" fill="#754314" style="paint-order:stroke fill markers"/>
   </g>
   <path transform="matrix(.36373 0 0 .36373 9.1004 12.854)" d="m21.535 25.988c-1.2335 2.2393-3.8999 3.2656-6.3165 2.4311m6.3165-2.4311c1.2335 2.2393 3.8999 3.2656 6.3165 2.4311" fill="none" stroke="#754314" stroke-linecap="round" stroke-linejoin="round" stroke-width="2.6458" style="paint-order:stroke fill markers"/>
  </g>
 </g>
</svg>
